#!OML:ASF H:\Martial Arts Walks\Project 1\Capture day 1\Session 1\male.ASF
:FULLY-SPECIFIED
:DEGREES
1001
root -1.32446 14.0009 25.3568 -2.94784 -51.9903 0.224335
lowerback 16.965 7.51446 -0.349924
upperback -3.13206 9.8325 -1.19312
thorax -12.8041 4.54641 -3.82932
lowerneck -6.16817 8.21207 -0.127924
upperneck 10.8339 10.8274 2.17935
head 4.55447 5.43411 1.38158
rclavicle 1.7785e-013 -1.86858e-014
rhumerus -36.8647 58.004 -107.08
rradius 113.712
rwrist -58.8646
rhand 8.75306 -13.9059
rfingers 7.12502
rthumb 33.9427 -40.7024
lclavicle 1.7785e-013 -1.86858e-014
lhumerus 4.84023 0.543885 77.2202
lradius 105.439
lwrist -6.16056
lhand -38.4134 54.6507
lfingers 7.12502
lthumb -11.4379 -275.681
rfemur -32.1477 -20.1563 21.0671
rtibia 80.9173
rfoot -37.3794 -17.7072
rtoes -1.53346
lfemur -42.6948 28.0877 -1.87273
ltibia 39.9244
lfoot 25.2049 7.08135
ltoes 9.84071
1002
root -1.30368 13.9434 25.5693 -3.52852 -53.2085 0.6448
lowerback 16.9242 7.63143 -0.0219614
upperback -3.09924 10.0407 -1.34378
thorax -12.6457 4.6206 -4.21031
lowerneck -6.03021 8.48586 -0.0346495
upperneck 10.8454 11.2067 2.00298
head 4.54314 5.61525 1.32167
rclavicle 1.51051e-013 2.26615e-014
rhumerus -38.6931 54.7736 -106.545
rradius 114.617
rwrist -74.2285
rhand 7.13283 -17.8382
rfingers 7.12502
rthumb 32.4021 -44.9627
lclavicle 1.51051e-013 2.26615e-014
lhumerus 3.79583 3.75786 78.2785
lradius 103.234
lwrist -4.05918
lhand -39.0111 53.0947
lfingers 7.12502
lthumb -12.0144 -277.27
rfemur -31.8381 -19.9282 19.8074
rtibia 81.6224
rfoot -37.6823 -17.6086
rtoes -2.66718
lfemur -42.1576 28.9968 -1.96347
ltibia 41.3656
lfoot 23.3548 5.30686
ltoes 8.46288
1003
root -1.28669 13.8792 25.7662 -4.07493 -54.1369 1.03814
lowerback 16.9432 7.66002 0.234225
upperback -3.06345 10.1178 -1.4667
thorax -12.5415 4.6377 -4.49693
lowerneck -5.88471 8.75796 0.0504368
upperneck 10.858 11.5838 1.83435
head 4.53107 5.79543 1.26519
rclavicle 3.28616e-014 2.38542e-015
rhumerus -40.2353 52.3731 -106.035
rradius 114.698
rwrist -84.3835
rhand 5.35332 -20.3608
rfingers 7.12502
rthumb 30.7069 -47.8177
lclavicle 3.28616e-014 2.38542e-015
lhumerus 2.90066 6.24004 78.814
lradius 101.152
lwrist -4.04745
lhand -39.2964 51.8199
lfingers 7.12502
lthumb -12.2894 -278.561
rfemur -31.6208 -19.8033 18.6746
rtibia 82.3813
rfoot -37.9964 -17.7215
rtoes -3.5323
lfemur -41.983 29.882 -2.27592
ltibia 43.0439
lfoot 21.0988 3.74401
ltoes 6.81498
1004
root -1.27353 13.811 25.9455 -4.56716 -54.7887 1.37537
lowerback 17.0173 7.60696 0.37524
upperback -3.01727 10.0647 -1.55252
thorax -12.4926 4.60079 -4.65654
lowerneck -5.75028 9.00305 0.128922
upperneck 10.8405 11.9179 1.72941
head 4.50689 5.95786 1.22749
rclavicle -7.49667e-014 2.26615e-014
rhumerus -41.6542 50.9635 -105.87
rradius 114.377
rwrist -89.619
rhand 3.64823 -21.7593
rfingers 7.12502
rthumb 29.0798 -49.5093
lclavicle -7.49667e-014 2.26615e-014
lhumerus 2.06839 7.98312 78.8575
lradius 99.3176
lwrist -5.72795
lhand -39.2329 50.9169
lfingers 7.12502
lthumb -12.2282 -279.461
rfemur -31.472 -19.8132 17.7037
rtibia 83.1724
rfoot -38.3164 -18.0651
rtoes -4.02219
lfemur -42.0978 30.6674 -2.72081
ltibia 44.8323
lfoot 18.6843 2.62559
ltoes 5.28795
1005
root -1.26362 13.7421 26.1069 -4.96916 -55.197 1.60883
lowerback 17.143 7.48239 0.394085
upperback -2.95767 9.8938 -1.59622
thorax -12.4958 4.51624 -4.68242
lowerneck -5.62692 9.19406 0.200017
upperneck 10.7444 12.1679 1.72818
head 4.44977 6.08475 1.21701
rclavicle 5.56846e-014 7.95139e-015
rhumerus -42.9653 50.4747 -106.117
rradius 113.94
rwrist -90.8127
rhand 2.29088 -22.4594
rfingers 7.12502
rthumb 27.7827 -50.426
lclavicle 5.56846e-014 7.95139e-015
lhumerus 1.27515 9.03597 78.4713
lradius 97.8053
lwrist -8.55088
lhand -38.8601 50.45
lfingers 7.12502
lthumb -11.8688 -279.906
rfemur -31.3631 -19.9637 16.9259
rtibia 83.9628
rfoot -38.6268 -18.6338
rtoes -4.11011
lfemur -42.4164 31.2947 -3.19309
ltibia 46.6305
lfoot 16.3553 1.97084
ltoes 4.08201
1006
root -1.25594 13.6757 26.2517 -5.23197 -55.4111 1.68327
lowerback 17.3136 7.30209 0.318907
upperback -2.88756 9.6327 -1.5949
thorax -12.5435 4.39555 -4.59143
lowerneck -5.50482 9.31187 0.255725
upperneck 10.5319 12.3072 1.84747
head 4.34196 6.16372 1.23634
rclavicle -1.3372e-013 7.55382e-015
rhumerus -44.1858 50.73 -106.748
rradius 113.511
rwrist -88.9999
rhand 1.65042 -22.7432
rfingers 7.12502
rthumb 27.1702 -50.8071
lclavicle -1.3372e-013 7.55382e-015
lhumerus 0.545816 9.47957 77.7512
lradius 96.6363
lwrist -11.8767
lhand -38.3132 50.4079
lfingers 7.12502
lthumb -11.3413 -279.919
rfemur -31.2736 -20.2405 16.3635
rtibia 84.7158
rfoot -38.9118 -19.3889
rtoes -3.8341
lfemur -42.8616 31.7401 -3.5928
ltibia 48.3745
lfoot 14.2768 1.65356
ltoes 3.18889
1007
root -1.24931 13.6142 26.3823 -5.30896 -55.4894 1.55779
lowerback 17.5164 7.08861 0.198235
upperback -2.81541 9.32236 -1.5484
thorax -12.6253 4.25539 -4.41709
lowerneck -5.36406 9.34767 0.289078
upperneck 10.1857 12.3281 2.06995
head 4.1747 6.18917 1.27835
rclavicle -4.30245e-014 -7.15625e-015
rhumerus -45.3303 51.4814 -107.655
rradius 113.143
rwrist -85.4623
rhand 1.92407 -22.714
rfingers 7.12502
rthumb 27.432 -50.7368
lclavicle -4.30245e-014 -7.15625e-015
lhumerus -0.0672363 9.41098 76.8172
lradius 95.7766
lwrist -15.0833
lhand -37.7842 50.7199
lfingers 7.12502
lthumb -10.8311 -279.579
rfemur -31.1995 -20.615 16.0232
rtibia 85.4002
rfoot -39.1539 -20.2764
rtoes -3.30017
lfemur -43.382 32.0174 -3.84876
ltibia 50.0377
lfoot 12.5134 1.49804
ltoes 2.4559
1008
root -1.24278 13.5589 26.5018 -5.17755 -55.4904 1.22844
lowerback 17.7298 6.87021 0.0768635
upperback -2.75178 9.01053 -1.46012
thorax -12.7287 4.11586 -4.19641
lowerneck -5.1886 9.30632 0.295926
upperneck 9.72284 12.2439 2.35559
head 3.95512 6.16439 1.3315
rclavicle -1.33633e-013 -2.62396e-014
rhumerus -46.3814 52.447 -108.667
rradius 112.902
rwrist -81.6391
rhand 2.91848 -22.4272
rfingers 7.12502
rthumb 28.3827 -50.2954
lclavicle -1.33633e-013 -2.62396e-014
lhumerus -0.507679 8.94437 75.7977
lradius 95.1462
lwrist -17.7266
lhand -37.4183 51.2752
lfingers 7.12502
lthumb -10.4782 -279.006
rfemur -31.1522 -21.0543 15.8836
rtibia 85.9982
rfoot -39.3426 -21.2159
rtoes -2.62861
lfemur -43.9543 32.1716 -3.93768
ltibia 51.6205
lfoot 11.0483 1.36484
ltoes 1.72891
